<mxfile host="app.diagrams.net" modified="2023-05-02T04:29:06.522Z" agent="Mozilla/5.0 (Windows NT 10.0; Win64; x64) AppleWebKit/537.36 (KHTML, like Gecko) Chrome/111.0.0.0 Safari/537.36 OPR/97.0.0.0" etag="gLTLzEdpOzXrtF-4pPwM" version="21.2.3" type="github">
  <diagram id="C5RBs43oDa-KdzZeNtuy" name="Page-1">
    <mxGraphModel dx="1009" dy="561" grid="1" gridSize="10" guides="1" tooltips="1" connect="1" arrows="1" fold="1" page="1" pageScale="1" pageWidth="1169" pageHeight="827" math="0" shadow="0">
      <root>
        <mxCell id="WIyWlLk6GJQsqaUBKTNV-0" />
        <mxCell id="WIyWlLk6GJQsqaUBKTNV-1" parent="WIyWlLk6GJQsqaUBKTNV-0" />
        <mxCell id="Gt9dSgZQOLRnMjfEP1NV-33" value="Реологические параметры" style="shape=offPageConnector;whiteSpace=wrap;html=1;" vertex="1" parent="WIyWlLk6GJQsqaUBKTNV-1">
          <mxGeometry x="315.75" y="16.25" width="150" height="60" as="geometry" />
        </mxCell>
        <mxCell id="Gt9dSgZQOLRnMjfEP1NV-44" value="" style="rounded=1;whiteSpace=wrap;html=1;absoluteArcSize=1;arcSize=14;strokeWidth=2;" vertex="1" parent="WIyWlLk6GJQsqaUBKTNV-1">
          <mxGeometry x="270" y="115.38" width="250" height="54.62" as="geometry" />
        </mxCell>
        <mxCell id="Gt9dSgZQOLRnMjfEP1NV-47" value="" style="strokeWidth=2;html=1;shape=mxgraph.flowchart.annotation_2;align=left;labelPosition=right;pointerEvents=1;" vertex="1" parent="WIyWlLk6GJQsqaUBKTNV-1">
          <mxGeometry x="520" y="120" width="30" height="40" as="geometry" />
        </mxCell>
        <mxCell id="Gt9dSgZQOLRnMjfEP1NV-56" value="p - Плотность бурового раствора" style="text;html=1;align=left;verticalAlign=middle;resizable=0;points=[];autosize=1;strokeColor=none;fillColor=none;" vertex="1" parent="WIyWlLk6GJQsqaUBKTNV-1">
          <mxGeometry x="550" y="130" width="210" height="30" as="geometry" />
        </mxCell>
        <mxCell id="Gt9dSgZQOLRnMjfEP1NV-59" value="Вывод:&lt;br&gt;&lt;span style=&quot;font-size: 10px;&quot;&gt;- Динамическое напряжение сдвига&lt;br&gt;- Пластическая вязкость&lt;br&gt;&lt;/span&gt;" style="shape=parallelogram;html=1;strokeWidth=2;perimeter=parallelogramPerimeter;whiteSpace=wrap;rounded=1;arcSize=12;size=0.23;" vertex="1" parent="WIyWlLk6GJQsqaUBKTNV-1">
          <mxGeometry x="250" y="310" width="281.5" height="90" as="geometry" />
        </mxCell>
        <mxCell id="Gt9dSgZQOLRnMjfEP1NV-64" value="" style="shape=image;verticalLabelPosition=bottom;labelBackgroundColor=default;verticalAlign=top;aspect=fixed;imageAspect=0;image=data:image/png,iVBORw0KGgoAAAANSUhEUgAAAXUAAABGCAYAAAAzZAR/AAAOlElEQVR4nO2dT0zb5hvHv/mdXXFwJhE4EQbcqoYqmbZxqAiTYLC1h62jlZpcyqa100rDDvQwrao0rVJJaA/rNJVKK9UIVXfoRkKRCtWksu2AIGw3EpWeiCsNH5hz3rtD9fpnh/xxbCcO5vlIlkhw/D726/f7vn7ex8/rYYwxEARBEK7gf04bQBAEQdgHiTpBEISLIFEnCIJwESTqBEEQLoJEnSAIwkWQqBMEQbgIEnWCIAgXQaJOEAThIkjUCYIAAORyOXz88cfweDzweDwIhULI5XJOm0XUiIfeKCUIQpIk9PX1YXt7W/e93+/Hs2fP0NbW5pBlRK3QSJ0gCExNTeHrr78GYwyMMWSzWfj9fmxvbyOZTDptHlEDNFInCKIkqVQK77//Pn7++We89957TptDGIRG6gRBlKWjowPHjx932gyiBkjUCYIoyfr6OpaWlsiffsAgUXeATCaDoaEheL1eNdLA6/ViaGgIi4uLdSs3lUqp5ZXbOjs7IUlS3WxwK4VCAXfv3kUoFLJ8DRcXFxEKhdQ66enpwfT0NAqFgo0WlyeXy2FgYADPnj1rSHn1JpPJ4LXXXqt67xdvAwMDUBTFNjsWFxfxxhtv6Oo1kUjYWgYAgBENQ1EUFg6HGQA2NjbGstms+j9JklgsFmMAWDAYZPl8vm5lV9qmpqZsLdfNZLNZdu3aNSaKou4a+v1+U/WnraOrV68yRVEYY4yl02kmiiILBoO6e6YeTE1N6c5FFEW2vr5e1zLrTTQarXrfl9rC4TD7559/LJevKAobGBhgANhXX32lHjOdTjOv18uCwSDb2tqyXA6HRL1BaBtsJeHkjcpuYV9YWKh6E5sVo8PIxsYGGxwcZDMzM+zq1auWr2O1+2NjY4OJoshEUWQbGxt2nUZZW5LJpNpZ2SVuTpDP51lnZ6cpUb9x4wb7999/LZWvFfRSx9vY2GBer9fWzpNEvUFwsQ6Hw+oIrBT5fJ75/X4GgEUiEVvK5oJRrWzCPJFIxJKo899X+i3fp1I9Fo+0rTyZccHx+/1sZ2enpvNpFhYWFpjH42FjY2OGOkPeCdglstFolHk8norXkO9jV+dJot4AahVqIw28FnhDX1hYsHwsojRaMa213rRPUZVE1uh+dsFHmQdV1Ln9U1NThkfcvBOwQ2D5saqN+o3uZxSaKG0AL1++xN7eniNlS5KE27dvIxKJYGRkxBEbiPIUCgXcvHkTACCKIvr7+8vue/z4cfj9fgDA7du36z6hLQgC2tra0NHRgSNHjtS1rHqQy+Vw9OhRxGIxeDweQ7/56aefwBjD4OAgBEEwXXahUMCtW7fAGFPrtZwN2nr97rvvLNcriXqDWV1drVhphUIBOzs7tpU3NzeHvb09jI+P23ZMwj5+/fVXrKysAABaWlrQ2tpadt8jR46go6MDALC9vY25ubm62iZJEn777TeMj48fSFEPBAKIx+OGBV2SJKyurlYVYSNYrVdm4Z1QEvUG0NraipaWFgCvKm1ycrLsvrlcDpubmwCACxcuwOfzmS6Xj9JlWUZvby/efvttTE9P4+XLl6aPSdjLw4cP1b+rjYgFQcDQ0JD6+fHjx7aEOUqShM7OToRCITWkNpfLYXx8HCdPnjw0T3jr6+vY3t7GsWPH0NXVZelYfMQPGK9X3oksLS1ZqlcS9Qbg8/nQ19enfp6dnUU8Hi+5782bNyHLMvx+P86ePWup3Lm5OV2Cpt9//x2xWAw+n0/XgAlnKH4qa29vr+mR/8WLF7bEOPt8Ppw6dQpra2sYHh6Gx+PB559/jmg0WvY+dSN2ul609drW1tbYerXikOdhXagh7vOwRl/wkDTt9YhEIrrrwSfb/H6/5Xhk7eRspW1sbOxA1Uk6nWaDg4O6aymK4r64/0ZjZqK0+J4wMoleHJpKk9/2YGfUC48a4nV07ty5qpOf2slSAOyXX34xXb7pkfrExAR6e3uxtLRk+DdDQ0OWesCDTCAQwA8//KD7bnZ2Fv39/chkMojH4/jiiy8QDofx559/Wn788/l8eP78ORRFQS6Xw4MHD/DRRx/t2+/OnTvo7+9v+rzZ8/Pz8Hq9GB4extLSEmRZVv8nyzLu3LmDN998E6lUykErrXH06FGnTTi02Ol6KabR9WpK1OPxOBKJRE2/qTazfxgYGRnZl8Z0bW0Nvb29+Oabb5BMJrG8vGxrxycIAl5//XWcPn0a8/PzUBQFiUQCoijqbBgcHGzK9ACFQgEDAwM4c+YMotEoFEVR08Mmk0ndeciyjEuXLjXleZRiZ2dH1zmZYWtryyZrDjd2uV4A++qVmZwsrVnUU6kUlpeXkU6n1QamKArC4TAAYGFhQW102m13dxeBQMCUkVbIZDK6HCtWN6t5PUZHR/eJUSMRBAGXL1/GH3/8odYZUH0C1wkkSUJ/fz9WVlaQTCYRj8d1DW50dBRPnjzRXcvt7W2sr687Ya5lenp6nDbhUGJn1Espenp6bD9mJWoS9Uwmg/v37+Phw4d499131QbGw3fC4TBOnDhRF0PdxMjICKLRqO47WZZx5swZTExMNMSGrq4uPHr0SCfs6XQamUymIeVXo1Ao4Ny5c1hbW0MkEsHo6GjJ/QKBAIaHh3XfaSNKmhkaZTcHdrtestmsDVaZx7CoFwoFpFIp3L17d9/jCW9EzegzDwQC2N3dLfn0YGZ7/vy5pTDDQqGAU6dO4d69e3jw4IFOVAEgkUggGo02JCOfIAi4f/+++uKDLMt4+vRp3cs1wsWLF7GysgJRFKvG2H/44YcNsopwI3a6XpoBw6IuCAK+/PLLfSedyWSQTqfJZ24A7k7Y3NzEkydPcPr0aTx69AixWEy33+zsLC5evNgQm3w+Hy5cuKB+rjX2eWZmBl6vF16vFzMzM7bYlEqlMDs7CwCGRk/t7e06F0ytE1P1OAcjkLvFeerheunu7rbBMvNYjlN/+vQpZFmuy6yxm5AkCSdPnsTa2hquXLmizi8IgoB4PI6pqSnd/pVi2e3m7Nmz6mi9lhjZTCaDyclJyLIMWZYxOTlp2X2jfW0eAMbHx6uOnoonpmoRy3qcg1nMuGMOQsdgNp95pXmtfD5vi231jHrhmJn0tOKHtyTq/I1FoDldL83E5OQk1tbWyr5UNDExsU/YG5HfA9j/cpSTaN+o9fv9NS+lZuY3TlH8hGEErfCLooj29na7zTpU1MP1YqZetX54q/VqSdR5L2fH249uhruoAKCvr6+sT75Y2BuR36OYWpI3BQIBXL9+HaIoQhRFXL9+3XKEE3/yAypfKy3aiVGjv+HU4xyM0tXVhWPHjqmf//rrr5p+Xy2nSLMQCATw999/2zqvZccSe/WKenG6Xi2JOm9MtTakRtIMIY1aoarm7/3kk090k6e13hBWqfVV9fPnz2N3dxe7u7s4f/68pbILhQIeP36sfjYyAcobJgBDk6qlsPMcakEQBN2IbGdnp+p8hvZ+OKjZE5uFerleius1n883tF5Ni7p29EnRB/YhCELDMypqc1U4WZdmXC+8YQLQzVUcFLTXu9p8RnFOEXJ5WqOeUS8ffPCBOvI3Wq/c727VHtOizkefpRpfPB5vmnjnZgtpNII2v3IjXjHmYur0ewa1ul60k6qRSKRhMf52cuLECfXJbG9vr2IGTUVR8OLFCwAgl6dF6v3CkdV6tWKPaVEv5xbIZDLI5/OGR0zaldNDoVDTdAZ20t/fr06cGHGnaBfVaER0AxfGGzduODbyK3a9GOnMvv/+e/Wlt2+//bae5tUN7ZNZtfcEtE8lVtMyH3Z4G6tX1IsgCLh06RI8Ho9ar+UiYLT1+umnn1qvVzNZwIpXpk8mk4yxVxn03nrrLcML4/KMc/z3fLFbN2ae40vUGVk4mF8XK1ktJUliMzMzLJ1OVzxGsyx1V5yxsJo9dlwjO7GynJ22PVU6HyNrlBLGiMfjzOPx2LJ8XDm0i05XWh6vKdYorZTW1ejaibwRa9ON8pvbjavaa69ZpUaZzWaZ3++veA1isZh6vWOx2L7/F3e6wWCQpdNp3T4bGxssGAwyURTVTtVJihdMrpSGlnf+sVisacTNiqgzpr8/SnVovBMzMiggKsPF1mya3YmJCTVN7uXLlyt2CjylL8qk0+Upd+1a6Joxk6JeLBqVBKYc5UaI/PtGLKzbaLLZLAsGgyWFVlEUVayCwWDZ3ODFI9pyjVy7un25rVI5jaTS/aQVbd4RdXd3N0VHxEmn0yVz5UuSVNNx+P2h7WgVRWGJRKLqfUEYh+c7NzMyLs6VbkSMs9ksC4VCTBRFNjc3xxh7Va/T09PM6/WyYDDItra2TJ9PMaYXyeANrNxIsBK8EZcSpGZ7rK4H5RZ6GBwcNHQdq43UOclkknV3d+vEpru7m127dq2pxEHbUfEFQhKJhM72Wq5PIyjXEZXaanFtcRHXnnut7YuojFXXSy0jdQ4X8Z6eHl29plIpM6dQEQ9jFlY4NUkmk8E777yDlpYWrK6u6iYGKv2PcCd8gRDgVRTLvXv3HLaIIA4utEYp4SjaVBMAvfNAEFZxRNSNrAxSLbaTcAfacK6DlLeFIJoVR0TdSMKbg5LXgrCGlbwtBEHsh9wvhGPYkbeFIAg9joh6a2srWlpaSrpYuGuGRm3uR+t6oXz8BGEPjog6z98ty7IuQRHw/3zRjch5QjiHmcUwCIKojmPul/HxcYiiqPOp8vwflKzI/fDFygE4nkiMINyEY6IeCARw5coVpNNpLC4uAniVoGlzcxO3bt0i14vLGRkZUTNfLi8v0yidIGzCkZePtMzPz+Ozzz6DLMsIBoP48ccfybdKEARhEsdFnSAIgrAPCmkkCIJwESTqBEEQLoJEnSAIwkWQqBMEQbgIEnWCIAgXQaJOEAThIkjUCYIgXASJOkEQhIsgUScIgnARJOoEQRAugkSdIAjCRZCoEwRBuAgSdYIgCBdBok4QBOEiSNQJgiBcBIk6QRCEiyBRJwiCcBH/AZYxPzr22AmvAAAAAElFTkSuQmCC;" vertex="1" parent="WIyWlLk6GJQsqaUBKTNV-1">
          <mxGeometry x="280.78" y="122.69999999999999" width="228.44" height="42.87" as="geometry" />
        </mxCell>
        <mxCell id="Gt9dSgZQOLRnMjfEP1NV-66" value="Определение динамического&amp;nbsp;&lt;br&gt;напряжения сдвига" style="text;html=1;align=left;verticalAlign=middle;resizable=0;points=[];autosize=1;strokeColor=none;fillColor=none;" vertex="1" parent="WIyWlLk6GJQsqaUBKTNV-1">
          <mxGeometry x="560" y="95.57" width="190" height="40" as="geometry" />
        </mxCell>
        <mxCell id="Gt9dSgZQOLRnMjfEP1NV-67" value="" style="rounded=1;whiteSpace=wrap;html=1;absoluteArcSize=1;arcSize=14;strokeWidth=2;" vertex="1" parent="WIyWlLk6GJQsqaUBKTNV-1">
          <mxGeometry x="270" y="219.81" width="250" height="54.62" as="geometry" />
        </mxCell>
        <mxCell id="Gt9dSgZQOLRnMjfEP1NV-68" value="" style="strokeWidth=2;html=1;shape=mxgraph.flowchart.annotation_2;align=left;labelPosition=right;pointerEvents=1;" vertex="1" parent="WIyWlLk6GJQsqaUBKTNV-1">
          <mxGeometry x="520" y="224.43" width="30" height="40" as="geometry" />
        </mxCell>
        <mxCell id="Gt9dSgZQOLRnMjfEP1NV-69" value="p - Плотность бурового раствора" style="text;html=1;align=left;verticalAlign=middle;resizable=0;points=[];autosize=1;strokeColor=none;fillColor=none;" vertex="1" parent="WIyWlLk6GJQsqaUBKTNV-1">
          <mxGeometry x="550" y="234.43" width="210" height="30" as="geometry" />
        </mxCell>
        <mxCell id="Gt9dSgZQOLRnMjfEP1NV-71" value="Определение пластической&lt;br&gt;вязкости" style="text;html=1;align=left;verticalAlign=middle;resizable=0;points=[];autosize=1;strokeColor=none;fillColor=none;" vertex="1" parent="WIyWlLk6GJQsqaUBKTNV-1">
          <mxGeometry x="560" y="200" width="180" height="40" as="geometry" />
        </mxCell>
        <mxCell id="Gt9dSgZQOLRnMjfEP1NV-72" value="" style="shape=image;verticalLabelPosition=bottom;labelBackgroundColor=default;verticalAlign=top;aspect=fixed;imageAspect=0;image=data:image/png,iVBORw0KGgoAAAANSUhEUgAAAaYAAABACAYAAABRG9MoAAAO+0lEQVR4nO2dTUwbRxvH/37PTnJYVwrhUkwDp1QxyG4bUanCaQUhaS5pFCKBWymkahslFKKWnqBVpUYNhvRApbb0IxxiJHJJbANSBIkUbhbeqD2xLuYEW6n40K7PmfcQ7XZt/LEfY+8anp9kycbD88yOZ+c/z8zsjIcxxkAQBEEQLuF/TmeAIAiCIPSQMBEEQRCugoSJIAiCcBUkTARBEISrIGEiCIIgXAUJE0EQ3MhkMrh69So8Hg88Hg9CoRAkSXI6W0SD4aHl4gRB8ECWZbz55pvY3Nws+Lvf78fTp09x7Ngxh3JGNBoUMREEwYXJyUl8/fXXYIyBMQZJktDa2opsNotYLOZ09ogGgiImgiBqRiKRwLvvvosHDx7g3LlzTmeHaBAoYiIIoqa0tLSgs7PT6WwQDQQJE0EQNWN9fR3Ly8s0v0SYgoTJIIuLiwiFQtpqo/b2dkxPTyOfzzeE33w+j+npabS3t2u2fD4frl69ikwmYzpfvO0RL8r0559/RigUQmtrK2RZtmzLqfqqkslk8Pbbb+Pp06fYb7MFi4uLeO211wrKdmpqCoqiuN5nJpPBhx9+iJdeeqngvu3t7UU6nTadL972NBhREUVRWDgcZgDYxMQEUxSFMcZYMplkgiCwYDDIJElytd90Os0EQWAAyr4mJycN5423vYOMJEnsq6++2lOefr+f7ezsmLbnVH3VMzk5WXAtgiCw9fX1mvqsB4qisNOnTzMAbHx8nP3777+MsRdl6/P5WDAYZBsbG671OTo6yjweT8X7NhwOaz7qbU8PCVMF9Dd5qYZWbaAFQWDpdNqVfnd2dpjf769YecyICW97B5l0Os16enrY7Owsm5iYsC1MTtXXcnmJxWLM5/PZaqDcgl4gbt++zZ4/f17wfTqdZj6fj6sI8/QZiUSqioj6CgaDbHt7u672iiFhqsDg4GDVRkJNEw6Htd6pW/yqDZUgCGxqaqogXTKZZMFg0FRjyNseUYj6m1otO171pjjisdMBURtPv99vunFyE5FIRCvbctehNta8RFi1Z9dnPB5nHo+HCYLAotFoQd2QZblk5DMwMLBHCFUSiQRXe6UgYSpDPB43dOMZTeeE33g8zvx+f9mhG30PW33F4/GKPnnaIwrRC4JZYXKqvlZD7fU3sjCpDXu5yMVsunr6VMu/mljOz88XiEm5KIy3vXKQMJVA38BWG/bQD23ZjRB4+lUUhV28eLHqkE3xfFE5IeFtj9iLVWFyqr4aJRKJNOxQnn44rVrjurOzw1pbW6tGVvX0mU6nWSgUMpSXaDRaICblhg952isHrcorwZMnT7CysgIAOHLkCI4ePVo27aFDh9DS0gIAyGazuHfvniv8er1efPfddwgEAhV9Hj16FEeOHAEACIKA5ubmkul42yP44VR9NYIsy1hbW8Pw8DAOHTpUU1+1wG7ZMgsrEnn6fPz4MS5evIimpqaqfvv7++H3+7XPv//++540vO2Vg4SpBAsLC9r7lpaWijeU1+tFb2+v9nlpacnyklzefitVaBV9xT558iSOHz9eNi1vewQfnKqvemRZxiuvvIJQKITFxUUAL5YSDw8P4/z58zh79qxtH05w//59raE3WrYejwcAsLy8bKls79+/r72363NkZASjo6Pa95XQ37vl4G2vHCRMReTzeWxvb2ufm5ub4fV6Df//1taWpecZnPKrKAq2trYgCAJu375tymc97BGVcareFNPU1ITz588jlUqhr68PHo8H169fRyQSQTQatW3fCZwoW9WnKobHjh2r2+/p9XrR3Nysic6rr75qyQ4Pe4aEqfhhvVAoBFEUC9Lk83ksLi5q6q0+aDU7O2viUpwnk8ng2bNnpv6nvb1de5/NZrG+vt4wftfX15HNZvHbb79VHaZzwl6tUOuqz+dr6AeEnao3pYhGo9oGrowxLC0t4cyZM1xsO4GVsm1ra9PeWylbJ3yWQ19P6m2vqjCNjo6ir68PqVRK+1sqlcKdO3e0z/Pz83j55ZfR19eH5eVl7e+5XA5DQ0MN22MC7Pca3OxXlmXMzMwgHo9zGWrhba8WzM/Pw+fzaXU1l8tp3+VyOfz000944403kEgkHMyldZyqrweBEydO1N1nPX9PfbTm9/vR2dlpaMiuFvYqClM0GsXhw4ehKAoURUE4HC74PpPJIBQK4e7du3j06JHWU0omkxAEQUvHaxy7Hmxvbxc0VlbY2NhwvV9RFHHixAlks1kuvw1ve7zJ5/M4ffo0+vv7EYlEoCiKVl9jsVhBfc3lcrhx44atLYHqhVP19SDAq2zNLIBwwqeKPlr76KOPDC1wqJW9ssIkiiLy+TzGx8dLjnH++eefuH79OiYmJrC0tFQwbHPmzBn09fWZuYYCv/rhFbsvu3uO8Q5nnfYriiJ6e3vR0dGBXC4HSZLQ39+PUChkqZx426sFsiyju7sbKysriMViiEajBXX60qVLePToUYE48RwSqSdO1deDgLov5H71+fjxY+RyOfj9fly+fNm2Xzv2ygpTIBDA+Pi49rl47PP111/HwsKCoTFks5OGTuJU77HWfmVZRmtrKzo6OgqGW1VSqRS6uroMiwlve7Uin89jYGAAqVQKg4ODuHTpUsl0gUBgT2dKv9rNrVC0UzucOBLeqWPoZVnG999/D8YY7ty5YztasmvP8Kq81dVVLcQMh8P48ssvy4pN8WqW9957z3CGAoEAdnd3CyZR7bw2NzdtF/J+oKmpCZubm2CMIZ1OY2hoaE+abDaLsbExR+zVik8++QQrKysQBAHDw8MV05qppwSxn4jFYshmsxgYGMDZs2dtR0t27RkSpnw+j6WlJe1zb29vxQhIH12pk16Nwn4buitFIBDAjz/+CEmSEAwGC75bW1szHeXwsDc7Owufz8d1JWcikcDc3BwAY89UNTc3FwznmZ14rsU1VIOG7mqHfrXbfvYpiiK++eYbdHd3Y2ZmxrYo8bBnSJj0QiMIArq7uyum10dXXV1dDR2xWBkq4dFY1MPv8ePHsbq6WrCoxc7cilV7oihibGwMuVwOuVwOY2Njex5HMEs+ny9YOTo8PFx1OLl44tlMedbiGqzgVH2tJaIoFpz3w2PeeWdnx3Q+rCwqsDtHVGuf+Xwen332GQ4fPoy5uTnbu3PwsmdImPRCU63nWRxdNdrwSHGv2Qj6xsDqNjxO+fV6vXuGuOzMW/C2ZxW7UXujRPpO1ZuDgJWy1c8RWSnbevu8du0aRFHEwsICl1OGr127hmfPntm2V1WYDtIwHvCi13/y5Ents5n9nYDqe1u5zS8AdHZ2FuxpZRez9gKBAG7dugVBECAIAm7dumX74VwrUbt+sYPZSL8W12AEJ+tNvQgEAvj777+5zjsbaTSLy/aPP/4wlW8rZVvP33Nqagpzc3P49ddf0dHRYcpPJXu//PKL7bpfVZiKheby5csV09sdxnN6ubi6jYbK9vZ21edy9JWn2t5WbvMLvFjI0NXVpX22O7Rjxd6VK1ewu7uL3d1dXLlyxZZ/K1G7utkoAEMLJUrB8xqM4mS92e84UbbF2/js7OzUxGcikcDNmzfx4MEDnDt3zlQeS5FMJjV7PBZPVBUmM0LT6MN4Kvp8V9t7qngFYrWI0o1+gf8m+nkN7fC2ZwYrUbu6lRIAfPHFF67eTqkYJ+vNfufChQtaI2u0bNU5oZ6eHktle+HCBe19LXyKoogPPvgA3377LZcdWkRRxPvvv6/Z4/LcVaUzMYoPfqt2to7+LJ5GPr10P5zHZBb1ZNPBwUFbdmplzwz6c42M+NeXuxP5Vdmv5zE1Mo1+HlMx6onCdg8yrJU9lYoRk9me535ZjaefwM/lclhdXS2bVt/T/vjjj21ds1N+1V6X1SGsWtsz61sftRtZ8v3DDz9gZWUF4XAYMzMztcxeTXCq3hwEvF4vbty4AY/Ho5UtK7NKTl+2drb0qZVPURTxzjvv4PPPPzd0dIUsy+jv7y+7gpG3vQIqqZaZnqfZ6Mrt6K8nHA4zRVFKplMjg0pp3O5XPW6b11HbvO2ZwewJumpeef1+drBztLpT9fUgoI9gKp3EG4lEmMfj4XJaL2+famTz6aefVo1sFEVhyWSShUIhNjg4WDI9b3vFlBWmgzqMp0c/7FHq+tVGrdrwCWOMjYyMaGU5MjJSc7/pdJoFg0HNnyzLJdNJksT8fn9VEeFtr1boG/dqHapYLMYEQWAjIyOuaKTtCBNjfOsrUYh+yOzhw4d7vo/H48zj8VQdehsdHdWOG6/WqPPyqYqI/r4w+nr48GHJ49V52itFWWEyKzRqT8xIdNVISJLEgsEgEwSBxWIxxtgL0Z6ammKCILBgMMgkSapoo7gXb6RhsOtXbYT0PqemprQGWFEUFovFWE9PD0smk1XLgbe9WlDcmdJ3BPTCo4psW1ubVrZOk0wmC+qIeh+V6wCUg0d9JUojSRILhUJMEAR27949xth/Zevz+VgwGGQbGxtl/7+4Qa8mKKV8Pn/+nCmKwqanpw35jMfjlkWk1JxVIpHgaq8cZYXJzDCevqe2H4bxilErX1tbm3aNwWDQVANsJmLi5TcWi7FTp07tqSCnTp1iQ0NDpnvNvO3xprgzJUnSnvITBMFR8dRTTkhLvczcUzzqK1EatWzb29sLyjaRSBj6fzMRk97n9PS0aZ92IhsAbGBgoCB/vO1VwsOYhYM7ikgkEtpaeL/fj7W1NZpUJepONBrFzZs3AQCDg4O4e/euwzkiCMIKhncXr4SdJ+YJggfqNvsqjfoMHUEQHIRJ/8Q8QA0C4Qz6ZbONuBUWQRD/YVuYqEEg3ABF7QSxf7AtTNQgEE7DY587giDcgy1hsnNSLUHwQh+1GzkQkCAId2NLmBRFwdbWFgA614VwBisHAhIE4W5sCdNff/2Ff/75B0BjnOtC7D+ePHmClZUVAEA4HMZbb73lcI4IgrALl+eYCIIgCIIXXJ5jIgiCIAhekDARBEEQroKEiSAIgnAVJEwEQRCEqyBhIgiCIFwFCRNBEAThKkiYCIIgCFdBwkQQBEG4ChImgiAIwlWQMBEEQRCugoSJIAiCcBUkTARBEISrIGEiCIIgXAUJE0EQBOEqSJgIgiAIV0HCRBAEQbiK/wO3GGwxGiJb7AAAAABJRU5ErkJggg==;" vertex="1" parent="WIyWlLk6GJQsqaUBKTNV-1">
          <mxGeometry x="277.73" y="229.33" width="234.54" height="35.57" as="geometry" />
        </mxCell>
        <mxCell id="Gt9dSgZQOLRnMjfEP1NV-73" value="" style="shape=image;verticalLabelPosition=bottom;labelBackgroundColor=default;verticalAlign=top;aspect=fixed;imageAspect=0;image=data:image/png,iVBORw0KGgoAAAANSUhEUgAAADkAAAA4CAYAAABHRFAgAAACiElEQVRoge2asa6iQBSGf7bWWEwjsZLE1miMFoZOC3kALX0IfQ1t7WylsEQsfQRI7LSwE20ojPZni90x1+j1IowumZ0voZDBw3zD4XAkakREkJxf/3oCn0BJyoKSlAUlKQtKUhaUpCwoSVlQkrKgJOPg+z4sy4KmaZG2druNy+Uiehq3kEAGgwEBeGkbjUYip/AQYZKj0ehlQcYYeZ4nagrfIkTScRzqdDrkui6dz2ciIjqfz9RqtQgAOY4j4jSxSSzpeR71er2rHMdxHAJArVbrbuzTJCo8l8sFi8UC0+kUmUzmZmw+nwMALMu6G/s471g5z/OIMfaxe+4n3vKcXK1WCMMQlUoFpVLpHad4CeGSh8MBk8kEQEpSFRCfrrzgGIZBQRCIDh8L4VeSFxzTNKHruujwsRAq6fs+XNcFAHS7XZGhEyFUkhccwzBQq9VuxsbjMXzfF3m6yAiVXK/XD/f7vo8gCFCtViPFWS6XaDQa0DQNjUYj+eKIurm/tnEAyLZtIiJyXZeazWbk5yUvXPz7tm0TYyxRayhMMggCMgwj0S8N3kT0+/3rPr54Saq1sHTNZrMoFot3+weDAYbDYaQY/J7+WrQymQwsy8Jut8NsNos3uVhL8w2e51G9XicAVK/XyXXdyN/lV+xRK5i02X9L7xoHnqqP0vLZWBTUO55Pst/vEYbh02NOpxOOx+PLsVMjWSgUwBh7ekwul0M+n385dmok30lqJPP5PHK53MOU5Kkct+lPjaSu6zBNE2EYYr/f34xtNhsAQLlcjhdc1CNABO/qeFIlSfTn/S1j7NpI8M+p6F1Fwpty/O2cttttongakfoDoRQoSVlQkrKgJGVBScrCfyH5G0yLG1BEeR1/AAAAAElFTkSuQmCC;" vertex="1" parent="WIyWlLk6GJQsqaUBKTNV-1">
          <mxGeometry x="290" y="346.75" width="16.79" height="16.5" as="geometry" />
        </mxCell>
        <mxCell id="Gt9dSgZQOLRnMjfEP1NV-74" value="" style="shape=image;verticalLabelPosition=bottom;labelBackgroundColor=default;verticalAlign=top;aspect=fixed;imageAspect=0;image=data:image/png,iVBORw0KGgoAAAANSUhEUgAAADQAAABGCAYAAACDkrchAAACf0lEQVRoge2av6rqQBCHf7ncUrRICsVOsDcIQcTKNPoANhY+hE/g6eMb2FhZWAZNIVjZauwDWvmnsZBNP7c410U953iNZsly2Q8EF8fMfplxTESNiAj/Eb+S3kDcKCHZUUKyo4RkRwnJjhKSHSUkO0pIdpSQ7Cgh2VFCsqOEZEeo0HQ6hWVZ0DQNmqbBsiz4vn8TE4YhptMpms0mjzMMA4PB4LWkJIhut0sAvjw6nQ6PGY1GpOv6t3EAyHGcyHmFVKjf7yOdToMxBsYYbNu+eT0IAliWheFwiNlsBiICEWEymUDXdR7neR7CMIyWPL6afLJarajX6/E1Y4xs2+ZnvVqtUqPRoMlk8u37O50Oj7VtmxhjT+fVdZ1+v1uNe0zThGmafB0EAdbrNV9XKhV8fHwglUr981j5fP6puBtiKcsDHMd5+ozfV9N13cj5hE65MAzheR5fN5vNh2f8upqFQgHlcjlyTqFC1xvUdR31ev1h/Hw+x+l0AgDUajXkcrnIOYUKXW+wVCqhWCz+GHtfzVar9VJOYUJJtBsgUOh+g+12+2H8u+3m+z4MwxAnFGWDcbUbADFjO+r4vXwpAqBCoUD7/f7l3EIqFPXzEMd0uyBEKLF2gwChqBuMa7pxXm7WH4j6ebi+GL2+tXiV2CsUpd0OhwMWiwVfv9tuAMRfnD7CdV1enXen24VEf1MYj8f8+bvT7UJiQkLaDQkKLZdLbDYbADFNt78kJiSi3YCEhMIwxG634+u42g1ISIgxhu12C+Dzxi+fz8d27ESEjscjzuczACCTySCbzcZ2bI1I/aNRapSQ7Cgh2VFCsqOEZEcJyY4Skh0lJDtKSHaUkOz8AcJdLlSeb7EJAAAAAElFTkSuQmCC;" vertex="1" parent="WIyWlLk6GJQsqaUBKTNV-1">
          <mxGeometry x="313.77" y="360" width="14.86" height="20" as="geometry" />
        </mxCell>
        <mxCell id="Gt9dSgZQOLRnMjfEP1NV-75" value="" style="endArrow=classic;html=1;rounded=0;exitX=0.5;exitY=1;exitDx=0;exitDy=0;entryX=0.482;entryY=-0.142;entryDx=0;entryDy=0;entryPerimeter=0;" edge="1" parent="WIyWlLk6GJQsqaUBKTNV-1" source="Gt9dSgZQOLRnMjfEP1NV-33" target="Gt9dSgZQOLRnMjfEP1NV-64">
          <mxGeometry width="50" height="50" relative="1" as="geometry">
            <mxPoint x="500" y="290" as="sourcePoint" />
            <mxPoint x="550" y="240" as="targetPoint" />
          </mxGeometry>
        </mxCell>
        <mxCell id="Gt9dSgZQOLRnMjfEP1NV-76" value="" style="endArrow=classic;html=1;rounded=0;exitX=0.5;exitY=1;exitDx=0;exitDy=0;entryX=0.5;entryY=0;entryDx=0;entryDy=0;" edge="1" parent="WIyWlLk6GJQsqaUBKTNV-1" source="Gt9dSgZQOLRnMjfEP1NV-44" target="Gt9dSgZQOLRnMjfEP1NV-67">
          <mxGeometry width="50" height="50" relative="1" as="geometry">
            <mxPoint x="390" y="180" as="sourcePoint" />
            <mxPoint x="389" y="210" as="targetPoint" />
          </mxGeometry>
        </mxCell>
        <mxCell id="Gt9dSgZQOLRnMjfEP1NV-78" value="" style="endArrow=classic;html=1;rounded=0;exitX=0.5;exitY=1;exitDx=0;exitDy=0;" edge="1" parent="WIyWlLk6GJQsqaUBKTNV-1" source="Gt9dSgZQOLRnMjfEP1NV-67">
          <mxGeometry width="50" height="50" relative="1" as="geometry">
            <mxPoint x="405" y="180" as="sourcePoint" />
            <mxPoint x="395" y="310" as="targetPoint" />
          </mxGeometry>
        </mxCell>
      </root>
    </mxGraphModel>
  </diagram>
</mxfile>
